<?xml version="1.0" encoding="UTF-8"?>
<svg version="1.1" viewBox="0 0 2048 1730" width="1280" height="1280" xmlns="http://www.w3.org/2000/svg">
<path transform="translate(0)" d="m0 0h2048v1730h-2048z" fill="#F7F6F6"/>
<path transform="translate(1056,76)" d="m0 0h23l41 1 31 2 27 3 29 5 33 8 36 12 26 11 25 13 21 13 16 12 9 7 14 12 11 11 9 11 10 12 14 20 9 15 8 17 7 23 12 49 3 23 1 12 1 28v371l1 62 1 20 4 27 5 20 9 26 8 18 8 14 16 21 12 16 14 19 6 12 2 6v13l-5 10-8 8-11 9-11 10-11 9-12 11-11 9-10 9-8 7-28 24-10 9-11 9-12 11-11 9-11 8-10 4-13 1-11-2-9-4-9-7-12-11-13-12-7-7-7-8-13-13-9-11-11-14-14-20-11-16-8-10-2-1-2 4-16 17-16 15-7 7-8 7-22 18-16 12-23 15-18 10-25 12-25 9-32 8-36 6-31 3-20 1h-47l-24-2-30-5-21-5-27-9-18-8-16-8-18-11-18-13-14-12-6-5v-2l-4-2-12-13-11-13-14-21-10-18-9-19-8-22-6-21-5-26-3-23-2-25v-41l2-28 5-33 6-25 6-19 11-28 13-25 12-19 8-11 10-13 13-15 10-11 8-7 13-12 14-11 20-14 18-11 22-12 29-13 29-11 28-9 29-8 33-8 41-8 39-6 52-6 67-6 47-4-1-57-3-44-4-26-4-17-5-15-8-15-11-13-11-10-18-11-14-6-18-5-21-3h-34l-17 2-26 7-16 6-19 10-13 9-10 8-13 13-12 17-8 16-7 19-5 20-8 16-7 7-6 4-5 2h-16l-129-16-56-7-13-5-8-7-5-10v-16l6-27 8-28 8-23 9-20 8-16 10-18 13-19 11-14 13-14 7-8 14-13 14-11 14-10 17-11 21-12 23-12 28-12 24-9 26-8 27-7 36-7 39-5 11-1z" fill="#1F1F1F"/>
<path transform="translate(110,1270)" d="m0 0h8l21 10 21 12 29 16 39 20 34 17 24 11 31 14 31 13 40 16 46 17 44 15 30 9 29 9 41 11 48 12 46 10 48 9 65 10 39 5 49 5 36 3 57 3 25 1h100l47-2 46-3 42-4 64-8 46-7 44-8 39-8 48-11 42-11 43-12 35-11 32-10 53-19 34-13 30-13 10-4 4-1h13l9 4 8 7 6 10 1 3v9l-5 10-10 9-48 32-28 17-24 14-26 14-54 27-24 11-29 12-30 12-28 10-36 12-35 11-47 13-33 8-56 12-39 7-48 7-48 5-21 2-39 2-36 1h-56l-61-3-48-4-58-7-48-8-37-7-47-11-41-11-40-12-36-12-43-16-30-12-30-13-20-9-27-13-16-8-39-20-43-25-25-15-22-14-25-17-23-16-19-14-16-12-14-11-25-20-15-13-11-9-13-12-8-7-6-7-2-5v-8l4-8z" fill="#F99B0B"/>
<path transform="translate(1162,667)" d="m0 0h32v112l-2 25-5 28-7 29-8 23-9 20-10 19-12 19-9 11-9 10-13 13-15 11-16 9-15 7-21 6-20 3h-11l-17-2-19-5-19-9-12-9-11-10-8-10-9-14-7-14-7-21-4-22-1-8v-43l4-27 5-19 8-20 8-15 9-13 9-11 15-15 13-10 16-10 21-11 20-8 23-7 31-6 37-4z" fill="#F7F6F5"/>
<path transform="translate(1807,1235)" d="m0 0h36l45 6 24 5 16 6 10 6 6 7 3 6 2 15v25l-2 28-5 28-6 23-12 36-7 19-10 23-10 19-11 18-13 19-9 11-12 14-10 11-8 7-10 8-6 3-6 1-8-3-5-4-1-2 1-10 8-20 15-37 14-38 13-40 7-27 5-28v-26l-4-13-5-6-16-8-16-4-22-3-24-1h-37l-45 3-68 9h-15l-5-3-3-3 1-8 6-9 7-7 15-10 18-10 20-9 30-10 36-8 31-5 28-3z" fill="#F99B0B"/>
</svg>
